<svg width="48" height="48" viewBox="0 0 48 48" fill="none" xmlns="http://www.w3.org/2000/svg">
<path d="M11 16C11 15.4477 11.4477 15 12 15H36C36.5523 15 37 15.4477 37 16C37 16.5523 36.5523 17 36 17H12C11.4477 17 11 16.5523 11 16Z" fill="black"/>
<path d="M11 24C11 23.4477 11.4477 23 12 23H36C36.5523 23 37 23.4477 37 24C37 24.5523 36.5523 25 36 25H12C11.4477 25 11 24.5523 11 24Z" fill="black"/>
<path d="M11 32C11 31.4477 11.4477 31 12 31H36C36.5523 31 37 31.4477 37 32C37 32.5523 36.5523 33 36 33H12C11.4477 33 11 32.5523 11 32Z" fill="black"/>
</svg>
