<svg width="20" height="20" viewBox="0 0 20 20" fill="none" xmlns="http://www.w3.org/2000/svg">
<g clip-path="url(#clip0_52_2823)">
<path d="M10 18.5C10 18.5 3.91648 11.4629 3.91648 8.10339C3.91648 6.48994 4.55742 4.94258 5.6983 3.8017C6.83918 2.66081 8.38655 2.01988 10 2.01988C11.6134 2.01988 13.1608 2.66081 14.3017 3.8017C15.4426 4.94258 16.0835 6.48994 16.0835 8.10339C16.0835 11.4629 10 18.5 10 18.5Z" stroke="white" stroke-width="1.25" stroke-linejoin="round"/>
<path d="M8.25 7.50007C8.25 7.97367 8.43814 8.42787 8.77302 8.76276C9.10791 9.09765 9.56211 9.28578 10.0357 9.28578C10.5093 9.28578 10.9635 9.09765 11.2984 8.76276C11.6333 8.42787 11.8214 7.97367 11.8214 7.50007C11.8214 7.02647 11.6333 6.57227 11.2984 6.23738C10.9635 5.90249 10.5093 5.71436 10.0357 5.71436C9.56211 5.71436 9.10791 5.90249 8.77302 6.23738C8.43814 6.57227 8.25 7.02647 8.25 7.50007Z" stroke="white" stroke-width="1.25"/>
</g>
<defs>
<clipPath id="clip0_52_2823">
<rect width="20" height="20" fill="white"/>
</clipPath>
</defs>
</svg>
