<svg width="40" height="40" viewBox="0 0 40 40" fill="none" xmlns="http://www.w3.org/2000/svg">
<g clip-path="url(#clip0_52_428)">
<path d="M5.82812 38.4229V31.3372H12.9138" stroke="white" stroke-width="2.5" stroke-linecap="round" stroke-linejoin="round"/>
<path d="M38.1124 16.6142C38.8642 20.6255 38.263 24.7729 36.4031 28.4056C34.5432 32.0383 31.5299 34.9508 27.836 36.6859C24.1421 38.4211 19.9766 38.8808 15.9933 37.9929C12.0099 37.1049 8.434 34.9197 5.82672 31.78M1.88958 23.3857C1.13777 19.3744 1.73899 15.227 3.59888 11.5943C5.45877 7.96158 8.47209 5.04915 12.166 3.31399C15.8599 1.57884 20.0254 1.11915 24.0087 2.00706C27.9921 2.89498 31.568 5.08024 34.1753 8.21996" stroke="white" stroke-width="2.5" stroke-linecap="round" stroke-linejoin="round"/>
<path d="M34.1697 1.57715V8.66286H27.084" stroke="white" stroke-width="2.5" stroke-linecap="round" stroke-linejoin="round"/>
<path d="M16.4297 15.0001C16.4297 15.9473 16.806 16.8557 17.4757 17.5255C18.1455 18.1953 19.0539 18.5716 20.0011 18.5716C20.9483 18.5716 21.8567 18.1953 22.5265 17.5255C23.1963 16.8557 23.5725 15.9473 23.5725 15.0001C23.5725 14.0529 23.1963 13.1445 22.5265 12.4748C21.8567 11.805 20.9483 11.4287 20.0011 11.4287C19.0539 11.4287 18.1455 11.805 17.4757 12.4748C16.806 13.1445 16.4297 14.0529 16.4297 15.0001Z" stroke="white" stroke-width="2.5"/>
<path d="M13.4512 27.1429C14.0065 25.8679 14.922 24.7828 16.0853 24.0206C17.2486 23.2585 18.609 22.8525 19.9997 22.8525C21.3904 22.8525 22.7509 23.2585 23.9142 24.0206C25.0774 24.7828 25.9929 25.8679 26.5483 27.1429" stroke="white" stroke-width="2.5" stroke-linecap="round"/>
</g>
<defs>
<clipPath id="clip0_52_428">
<rect width="40" height="40" fill="white"/>
</clipPath>
</defs>
</svg>
