<svg width="40" height="40" viewBox="0 0 40 40" fill="none" xmlns="http://www.w3.org/2000/svg">
<g clip-path="url(#clip0_52_1855)">
<path d="M20 37C20 37 7.83297 22.9259 7.83297 16.2068C7.83297 12.9799 9.11485 9.88515 11.3966 7.60339C13.6784 5.32163 16.7731 4.03975 20 4.03975C23.2269 4.03975 26.3216 5.32163 28.6034 7.60339C30.8852 9.88515 32.167 12.9799 32.167 16.2068C32.167 22.9259 20 37 20 37Z" stroke="white" stroke-width="2.5" stroke-linejoin="round"/>
<path d="M16.5 15.0001C16.5 15.9473 16.8763 16.8557 17.546 17.5255C18.2158 18.1953 19.1242 18.5716 20.0714 18.5716C21.0186 18.5716 21.927 18.1953 22.5968 17.5255C23.2666 16.8557 23.6429 15.9473 23.6429 15.0001C23.6429 14.0529 23.2666 13.1445 22.5968 12.4748C21.927 11.805 21.0186 11.4287 20.0714 11.4287C19.1242 11.4287 18.2158 11.805 17.546 12.4748C16.8763 13.1445 16.5 14.0529 16.5 15.0001Z" stroke="white" stroke-width="2.5"/>
</g>
<defs>
<clipPath id="clip0_52_1855">
<rect width="40" height="40" fill="white"/>
</clipPath>
</defs>
</svg>
