<svg width="20" height="20" viewBox="0 0 20 20" fill="none" xmlns="http://www.w3.org/2000/svg">
<g clip-path="url(#clip0_52_2219)">
<path d="M11.528 13.8067C11.7001 13.8858 11.894 13.9038 12.0777 13.8579C12.2615 13.8121 12.4241 13.7049 12.5388 13.5542L12.8346 13.1667C12.9899 12.9598 13.1912 12.7917 13.4226 12.676C13.654 12.5603 13.9092 12.5001 14.168 12.5001H16.668C17.11 12.5001 17.5339 12.6757 17.8465 12.9882C18.159 13.3008 18.3346 13.7247 18.3346 14.1667V16.6667C18.3346 17.1088 18.159 17.5327 17.8465 17.8453C17.5339 18.1578 17.11 18.3334 16.668 18.3334C12.6897 18.3334 8.87441 16.7531 6.06137 13.94C3.24832 11.127 1.66797 7.31166 1.66797 3.33341C1.66797 2.89139 1.84356 2.46746 2.15612 2.1549C2.46868 1.84234 2.89261 1.66675 3.33464 1.66675H5.83464C6.27666 1.66675 6.70059 1.84234 7.01315 2.1549C7.32571 2.46746 7.5013 2.89139 7.5013 3.33341V5.83341C7.5013 6.09216 7.44106 6.34734 7.32535 6.57877C7.20963 6.8102 7.04163 7.0115 6.83464 7.16675L6.44464 7.45925C6.29165 7.57606 6.18382 7.74224 6.13946 7.92954C6.0951 8.11684 6.11695 8.31373 6.2013 8.48675C7.3402 10.8 9.21332 12.6707 11.528 13.8067Z" stroke="white" stroke-width="1.66667" stroke-linecap="round" stroke-linejoin="round"/>
</g>
<defs>
<clipPath id="clip0_52_2219">
<rect width="20" height="20" fill="white"/>
</clipPath>
</defs>
</svg>
