<svg width="146" height="33" viewBox="0 0 146 33" fill="none" xmlns="http://www.w3.org/2000/svg">
<g clip-path="url(#clip0_24_4814)">
<path fill-rule="evenodd" clip-rule="evenodd" d="M16.1785 3.13086C16.1785 2.707 16.3083 2.29266 16.5515 1.94024C16.7947 1.58781 17.1403 1.31313 17.5447 1.15093C17.9492 0.988722 18.3941 0.946281 18.8234 1.02897C19.2528 1.11166 19.6471 1.31577 19.9566 1.61548C20.2661 1.9152 20.4769 2.29705 20.5623 2.71277C20.6477 3.12848 20.6039 3.55938 20.4364 3.95097C20.2689 4.34257 19.9852 4.67727 19.6213 4.91275C19.2573 5.14824 18.8294 5.27393 18.3917 5.27393C18.1011 5.27407 17.8132 5.21873 17.5445 5.11108C17.276 5.00343 17.032 4.84558 16.8264 4.64655C16.6209 4.44752 16.4579 4.21121 16.3467 3.95114C16.2356 3.69107 16.1784 3.41233 16.1785 3.13086ZM16.107 30.8437C16.1072 30.4199 16.2372 30.0056 16.4804 29.6533C16.7237 29.301 17.0695 29.0266 17.474 28.8645C17.8784 28.7024 18.3233 28.6602 18.7525 28.743C19.1817 28.8258 19.576 29.03 19.8854 29.3297C20.1948 29.6295 20.4054 30.0113 20.4908 30.427C20.5761 30.8427 20.5322 31.2735 20.3647 31.6651C20.1972 32.0566 19.9135 32.3913 19.5495 32.6267C19.1856 32.8621 18.7577 32.9878 18.3201 32.9878C18.0293 32.9881 17.7413 32.9328 17.4726 32.8252C17.2038 32.7175 16.9597 32.5596 16.7541 32.3603C16.5486 32.1612 16.3856 31.9247 16.2745 31.6644C16.1635 31.4042 16.1065 31.1253 16.107 30.8437ZM23.2801 23.8987C23.2801 23.4748 23.41 23.0605 23.6532 22.7081C23.8963 22.3556 24.2419 22.081 24.6463 21.9187C25.0507 21.7565 25.4957 21.7141 25.925 21.7967C26.3543 21.8795 26.7487 22.0836 27.0581 22.3833C27.3677 22.683 27.5784 23.0649 27.6639 23.4806C27.7493 23.8963 27.7055 24.3272 27.538 24.7188C27.3704 25.1103 27.0868 25.4451 26.7228 25.6806C26.3589 25.9161 25.931 26.0417 25.4932 26.0417C25.2026 26.0419 24.9147 25.9866 24.6461 25.8789C24.3776 25.7712 24.1335 25.6134 23.928 25.4143C23.7224 25.2153 23.5594 24.979 23.4483 24.7189C23.3371 24.4589 23.28 24.1802 23.2801 23.8987ZM30.4533 16.9526C30.4531 16.5287 30.5827 16.1143 30.8257 15.7617C31.0688 15.4092 31.4144 15.1342 31.8187 14.9719C32.2231 14.8095 32.6681 14.767 33.0975 14.8495C33.5268 14.9321 33.9213 15.1361 34.2309 15.4358C34.5406 15.7355 34.7514 16.1173 34.8369 16.5331C34.9224 16.9488 34.8787 17.3798 34.7111 17.7714C34.5437 18.163 34.26 18.4978 33.8961 18.7334C33.5321 18.9689 33.1042 19.0946 32.6663 19.0946C32.3758 19.0947 32.0881 19.0395 31.8196 18.9319C31.551 18.8243 31.3071 18.6665 31.1015 18.4676C30.896 18.2686 30.733 18.0325 30.6217 17.7725C30.5106 17.5126 30.4533 17.234 30.4533 16.9526ZM8.06808 19.768L8.34798 20.039C8.61058 20.2998 8.93864 20.4899 9.3 20.5908C9.66135 20.6918 10.0436 20.7 10.4092 20.6147C10.9207 20.504 11.4512 20.504 11.9627 20.6147C12.3284 20.7 12.7107 20.6918 13.072 20.5908C13.4333 20.4899 13.7614 20.2998 14.024 20.039L14.3397 19.7323C14.6095 19.4783 14.8062 19.1607 14.9105 18.8107C15.0148 18.4606 15.0229 18.0903 14.9342 17.7363C14.8778 17.4896 14.8494 17.2378 14.8496 16.9852C14.8496 16.0829 15.2196 15.2176 15.8784 14.5795C16.5371 13.9414 17.4307 13.5828 18.3624 13.5825C18.6233 13.5827 18.8835 13.6106 19.138 13.6655C19.5037 13.7508 19.886 13.7425 20.2473 13.6416C20.6087 13.5406 20.9367 13.3505 21.1993 13.0898L21.5151 12.7831C21.785 12.5293 21.9818 12.2116 22.0861 11.8616C22.1904 11.5115 22.1985 11.1411 22.1095 10.787C22.0533 10.5401 22.0248 10.2879 22.0249 10.0349C22.0254 9.33014 22.2519 8.64292 22.6732 8.06827C23.0946 7.49363 23.6899 7.05995 24.3769 6.8272C25.0639 6.59446 25.8085 6.57414 26.5079 6.76907C27.2073 6.964 27.8269 7.36455 28.281 7.91532C28.7351 8.46609 29.0013 9.13987 29.0426 9.84349C29.084 10.5471 28.8987 11.2458 28.5122 11.8429C28.1256 12.4401 27.5571 12.9062 26.8851 13.1769C26.2131 13.4475 25.4708 13.5092 24.761 13.3535C24.3953 13.2684 24.013 13.2768 23.6516 13.3779C23.2902 13.479 22.9622 13.6693 22.6997 13.9303L22.384 14.236C22.1146 14.4901 21.918 14.8077 21.8136 15.1577C21.7092 15.5076 21.7005 15.8778 21.7884 16.2319C21.9187 16.7925 21.9004 17.3758 21.7353 17.9277C21.5702 18.4797 21.2636 18.9821 20.8441 19.3885C20.4245 19.7949 19.9058 20.0919 19.3358 20.2519C18.7659 20.4119 18.1635 20.4298 17.5845 20.3037C17.2189 20.2185 16.8367 20.2268 16.4753 20.3277C16.114 20.4286 15.7859 20.6188 15.5233 20.8795L15.2076 21.1862C14.9375 21.4399 14.7404 21.7575 14.6359 22.1076C14.5315 22.4576 14.5232 22.8281 14.612 23.1822C14.7277 23.6799 14.7263 24.1965 14.6079 24.6935C14.4895 25.1906 14.257 25.6556 13.928 26.054C13.5989 26.4523 13.1814 26.7739 12.7066 26.9949C12.2318 27.2158 11.7117 27.3306 11.1849 27.3306C10.658 27.3306 10.1381 27.2158 9.66318 26.9949C9.18835 26.7739 8.77094 26.4523 8.44185 26.054C8.11275 25.6556 7.88036 25.1906 7.76196 24.6935C7.64355 24.1965 7.64216 23.6799 7.75782 23.1822C7.8465 22.8281 7.83817 22.4577 7.73372 22.1076C7.62926 21.7576 7.43226 21.4399 7.1622 21.1862L6.88229 20.9151C6.61982 20.6542 6.29181 20.4639 5.93045 20.3629C5.56908 20.2617 5.18677 20.2533 4.82104 20.3385C4.11072 20.4946 3.36784 20.4331 2.69517 20.1625C2.0225 19.8919 1.45333 19.4256 1.06633 18.8281C0.679327 18.2305 0.493613 17.5312 0.534964 16.827C0.576315 16.1229 0.84267 15.4485 1.29713 14.8973C1.75158 14.346 2.37169 13.9452 3.0717 13.7502C3.77171 13.5552 4.51699 13.5757 5.20446 13.8088C5.89193 14.0418 6.48763 14.4761 6.9091 15.0513C7.33058 15.6266 7.55703 16.3145 7.55711 17.0198C7.55725 17.2724 7.52885 17.5244 7.47246 17.7709C7.38435 18.1253 7.39294 18.4957 7.49735 18.8458C7.60178 19.1959 7.79846 19.5137 8.06808 19.768ZM9.00542 10.0769C9.00542 9.65306 9.13522 9.23872 9.3784 8.8863C9.62158 8.53387 9.96723 8.25919 10.3717 8.09699C10.776 7.93479 11.221 7.89234 11.6503 7.97503C12.0796 8.05772 12.474 8.26184 12.7834 8.56154C13.093 8.86126 13.3037 9.24312 13.3892 9.65883C13.4745 10.0746 13.4308 10.5054 13.2632 10.8971C13.0957 11.2886 12.812 11.6234 12.4481 11.8589C12.0841 12.0943 11.6563 12.22 11.2185 12.22C10.6323 12.2197 10.07 11.9943 9.65507 11.5931C9.24019 11.1919 9.00657 10.6478 9.00542 10.0801V10.0769Z" fill="#2D9CDB"/>
<path d="M43.8297 24.7625C43.662 24.7625 43.5247 24.7099 43.4179 24.6047C43.3112 24.4995 43.2578 24.3644 43.2578 24.1991V9.55117C43.2578 9.38592 43.3112 9.2507 43.4179 9.14554C43.5247 9.04038 43.662 8.98779 43.8297 8.98779H46.7802C46.9479 8.98779 47.0851 9.04038 47.1918 9.14554C47.2986 9.2507 47.3519 9.38592 47.3519 9.55117V14.9821H48.7471L52.1323 9.41596C52.2085 9.29577 52.3152 9.19813 52.4524 9.123C52.5897 9.03287 52.765 8.98779 52.9785 8.98779H56.2721C56.4246 8.98779 56.5466 9.04038 56.638 9.14554C56.7295 9.23568 56.7753 9.34085 56.7753 9.46104C56.7753 9.55117 56.7448 9.64132 56.6838 9.73145L52.4296 16.5821L57.0955 23.9963C57.1413 24.0563 57.1642 24.1389 57.1642 24.2442C57.1642 24.3944 57.1107 24.5221 57.004 24.6272C56.9125 24.7174 56.7905 24.7625 56.638 24.7625H53.253C53.009 24.7625 52.826 24.7099 52.704 24.6047C52.5973 24.4995 52.5134 24.4093 52.4524 24.3342L48.9072 18.5878H47.3519V24.1991C47.3519 24.3644 47.2986 24.4995 47.1918 24.6047C47.0851 24.7099 46.9479 24.7625 46.7802 24.7625H43.8297Z" fill="#37464F"/>
<path d="M64.6706 24.9879C63.3897 24.9879 62.3071 24.7851 61.4226 24.3794C60.5536 23.9738 59.8826 23.3954 59.4099 22.6443C58.9525 21.878 58.6932 20.9691 58.6322 19.9175C58.617 19.617 58.6094 19.279 58.6094 18.9034C58.6094 18.5128 58.617 18.1747 58.6322 17.8892C58.6932 16.8226 58.9678 15.9137 59.4557 15.1626C59.9436 14.4113 60.6222 13.833 61.4913 13.4273C62.3757 13.0217 63.4354 12.8188 64.6706 12.8188C65.9209 12.8188 66.9806 13.0217 67.8497 13.4273C68.7342 13.833 69.4203 14.4113 69.9083 15.1626C70.3962 15.9137 70.6706 16.8226 70.7316 17.8892C70.7469 18.1747 70.7545 18.5128 70.7545 18.9034C70.7545 19.279 70.7469 19.617 70.7316 19.9175C70.6706 20.9691 70.4038 21.878 69.9312 22.6443C69.4737 23.3954 68.8028 23.9738 67.9184 24.3794C67.0493 24.7851 65.9666 24.9879 64.6706 24.9879ZM64.6706 22.2386C65.3567 22.2386 65.8523 22.0358 66.1572 21.6301C66.4774 21.2245 66.6604 20.616 66.7061 19.8048C66.7214 19.5794 66.729 19.279 66.729 18.9034C66.729 18.5277 66.7214 18.2273 66.7061 18.002C66.6604 17.2058 66.4774 16.6048 66.1572 16.1992C65.8523 15.7785 65.3567 15.5681 64.6706 15.5681C63.9996 15.5681 63.5041 15.7785 63.1839 16.1992C62.8636 16.6048 62.6882 17.2058 62.6578 18.002C62.6425 18.2273 62.6349 18.5277 62.6349 18.9034C62.6349 19.279 62.6425 19.5794 62.6578 19.8048C62.6882 20.616 62.8636 21.2245 63.1839 21.6301C63.5041 22.0358 63.9996 22.2386 64.6706 22.2386Z" fill="#37464F"/>
<path d="M73.5529 24.7622C73.4004 24.7622 73.2708 24.7096 73.164 24.6045C73.0573 24.4993 73.0039 24.3716 73.0039 24.2214V13.6073C73.0039 13.4421 73.0573 13.3068 73.164 13.2017C73.2708 13.0965 73.408 13.0439 73.5758 13.0439H76.2747C76.4272 13.0439 76.5568 13.0965 76.6635 13.2017C76.7855 13.3068 76.8464 13.4421 76.8464 13.6073V21.8327L75.8172 21.3368L81.4666 13.4045C81.5429 13.2993 81.6344 13.2167 81.7411 13.1566C81.8479 13.0815 81.9698 13.0439 82.1071 13.0439H84.5544C84.7069 13.0439 84.8365 13.0965 84.9432 13.2017C85.0499 13.3068 85.1033 13.4345 85.1033 13.5847V24.1989C85.1033 24.3641 85.0499 24.4993 84.9432 24.6045C84.8365 24.7096 84.6992 24.7622 84.5315 24.7622H81.8326C81.6649 24.7622 81.5277 24.7096 81.4208 24.6045C81.3141 24.4993 81.2608 24.3641 81.2608 24.1989V16.2214L82.3129 16.4242L76.6177 24.4017C76.5568 24.5068 76.4729 24.597 76.3662 24.6721C76.2594 24.7321 76.1298 24.7622 75.9773 24.7622H73.5529Z" fill="#37464F"/>
<path d="M88.1597 24.7622C87.9919 24.7622 87.8547 24.7096 87.748 24.6045C87.6413 24.4993 87.5879 24.3641 87.5879 24.1989V13.6073C87.5879 13.4421 87.6413 13.3068 87.748 13.2017C87.8547 13.0965 87.9919 13.0439 88.1597 13.0439H90.8586C91.011 13.0439 91.1407 13.0965 91.2475 13.2017C91.3694 13.3068 91.4304 13.4421 91.4304 13.6073V17.3481H95.5476V13.6073C95.5476 13.4421 95.6003 13.3068 95.7076 13.2017C95.814 13.0965 95.9514 13.0439 96.1189 13.0439H98.8182C98.9707 13.0439 99.1005 13.0965 99.2069 13.2017C99.3293 13.3068 99.3895 13.4421 99.3895 13.6073V24.1989C99.3895 24.3641 99.3293 24.4993 99.2069 24.6045C99.1005 24.7096 98.9707 24.7622 98.8182 24.7622H96.1189C95.9514 24.7622 95.814 24.7096 95.7076 24.6045C95.6003 24.4993 95.5476 24.3641 95.5476 24.1989V20.3002H91.4304V24.1989C91.4304 24.3641 91.3694 24.4993 91.2475 24.6045C91.1407 24.7096 91.011 24.7622 90.8586 24.7622H88.1597Z" fill="#37464F"/>
<path d="M104.148 24.9878C103.981 24.9878 103.844 24.9344 103.738 24.8278C103.632 24.7212 103.578 24.584 103.578 24.4164V9.55922C103.578 9.3916 103.632 9.25446 103.738 9.14779C103.844 9.04113 103.981 8.98779 104.148 8.98779H107.085C107.252 8.98779 107.389 9.04113 107.495 9.14779C107.602 9.25446 107.654 9.3916 107.654 9.55922V15.0678H109.044L112.414 9.42208C112.489 9.30018 112.596 9.20113 112.732 9.12494C112.868 9.03351 113.044 8.98779 113.256 8.98779H116.535C116.687 8.98779 116.808 9.04113 116.9 9.14779C116.991 9.23922 117.036 9.34589 117.036 9.46779C117.036 9.55922 117.006 9.65065 116.945 9.74208L112.709 16.6907L117.355 24.2107C117.4 24.2716 117.423 24.3554 117.423 24.4621C117.423 24.6144 117.37 24.744 117.264 24.8507C117.172 24.9421 117.051 24.9878 116.9 24.9878H113.529C113.286 24.9878 113.104 24.9344 112.982 24.8278C112.877 24.7212 112.793 24.6297 112.732 24.5535L109.203 18.7249H107.654V24.4164C107.654 24.584 107.602 24.7212 107.495 24.8278C107.389 24.9344 107.252 24.9878 107.085 24.9878H104.148Z" fill="#2D9CDB"/>
<path d="M119.844 24.9878C119.692 24.9878 119.563 24.9344 119.457 24.8278C119.351 24.7212 119.297 24.5916 119.297 24.4392V13.6735C119.297 13.5059 119.351 13.3688 119.457 13.2621C119.563 13.1554 119.7 13.1021 119.866 13.1021H122.553C122.705 13.1021 122.834 13.1554 122.94 13.2621C123.062 13.3688 123.123 13.5059 123.123 13.6735V22.0164L122.098 21.5135L127.722 13.4678C127.799 13.3612 127.89 13.2773 127.995 13.2164C128.102 13.1402 128.223 13.1021 128.36 13.1021H130.796C130.949 13.1021 131.078 13.1554 131.184 13.2621C131.289 13.3688 131.343 13.4983 131.343 13.6507V24.4164C131.343 24.584 131.289 24.7212 131.184 24.8278C131.078 24.9344 130.941 24.9878 130.774 24.9878H128.087C127.92 24.9878 127.783 24.9344 127.677 24.8278C127.571 24.7212 127.517 24.584 127.517 24.4164V16.3249L128.565 16.5307L122.895 24.6221C122.834 24.7288 122.751 24.8202 122.645 24.8964C122.538 24.9573 122.409 24.9878 122.258 24.9878H119.844Z" fill="#2D9CDB"/>
<path d="M137.392 24.9878C137.241 24.9878 137.104 24.9344 136.983 24.8278C136.877 24.7212 136.823 24.584 136.823 24.4164V16.0964H133.362C133.211 16.0964 133.073 16.043 132.952 15.9364C132.846 15.8297 132.793 15.6925 132.793 15.5249V13.6735C132.793 13.5059 132.846 13.3688 132.952 13.2621C133.073 13.1554 133.211 13.1021 133.362 13.1021H144.064C144.216 13.1021 144.345 13.1554 144.451 13.2621C144.573 13.3688 144.634 13.5059 144.634 13.6735V15.5249C144.634 15.6925 144.573 15.8297 144.451 15.9364C144.345 16.043 144.216 16.0964 144.064 16.0964H140.603V24.4164C140.603 24.584 140.55 24.7212 140.444 24.8278C140.337 24.9344 140.201 24.9878 140.034 24.9878H137.392Z" fill="#2D9CDB"/>
</g>
<defs>
<clipPath id="clip0_24_4814">
<rect width="144.941" height="32" fill="white" transform="translate(0.529297 0.987793)"/>
</clipPath>
</defs>
</svg>
