<svg width="192" height="48" viewBox="0 0 192 48" fill="none" xmlns="http://www.w3.org/2000/svg">
<path d="M16.7497 31.7125C19.2519 31.7125 21.1584 30.8747 22.4692 29.199C23.8097 27.4968 24.4799 25.2892 24.4799 22.5763C24.4799 19.8633 23.8097 17.6558 22.4692 15.9535C21.1584 14.2513 19.2519 13.4002 16.7497 13.4002C14.2771 13.4002 12.3557 14.2513 10.9855 15.9535C9.64495 17.6558 8.9747 19.8633 8.9747 22.5763C8.9747 25.2626 9.64495 27.4569 10.9855 29.1591C12.3557 30.8614 14.2771 31.7125 16.7497 31.7125ZM28.1887 33.2684C25.2991 36.0612 21.4712 37.4575 16.705 37.4575C11.9387 37.4575 8.1108 36.0612 5.22127 33.2684C2.36152 30.4757 0.931641 26.9117 0.931641 22.5763C0.931641 18.2409 2.36152 14.6769 5.22127 11.8841C8.1108 9.0914 11.9387 7.69504 16.705 7.69504C21.4712 7.69504 25.2991 9.0914 28.1887 11.8841C31.0782 14.6769 32.523 18.2409 32.523 22.5763C32.523 26.9117 31.0782 30.4757 28.1887 33.2684ZM41.2272 36.7793V14.238H31.933V8.25358H58.5198V14.238H49.1362V36.7793H41.2272ZM73.6958 37.4176C69.0487 37.4176 65.2506 36.0347 62.3015 33.2684C59.382 30.4757 57.9225 26.925 57.9225 22.6162C57.9225 18.3074 59.3674 14.7433 62.2568 11.924C65.1462 9.10471 68.9443 7.69504 73.6511 7.69504C77.2855 7.69504 80.324 8.53286 82.7666 10.2085C85.537 12.0703 87.1306 14.6902 87.5477 18.068H79.6387C79.4303 16.7648 78.7897 15.6876 77.7173 14.8364C76.6449 13.9853 75.2747 13.5598 73.6064 13.5598C71.1042 13.5598 69.1978 14.3976 67.8869 16.0732C66.6061 17.7223 65.9655 19.9032 65.9655 22.6162C65.9655 25.2759 66.6655 27.4436 68.0657 29.1192C69.4659 30.7949 71.3276 31.6327 73.6511 31.6327C75.3788 31.6327 76.794 31.1938 77.8961 30.3161C79.0282 29.4384 79.6834 28.2947 79.8621 26.8851H87.7712C87.5327 29.7576 86.2519 32.1912 83.9284 34.1861C81.4261 36.3404 78.0151 37.4176 73.6958 37.4176ZM89.6992 36.7793V8.25358H113.918V14.0784H97.6082V19.1851H111.594V24.6908H97.6082V30.7949H114.186V36.7793H89.6992ZM114.808 36.7793L125.398 21.8183L115.702 8.25358H124.728L130.135 16.552H130.224L135.72 8.25358H144.299L134.827 21.7385L145.417 36.7793H136.078L130.09 27.1244H130.001L123.79 36.7793H114.808Z" fill="black"/>
<path d="M169.984 21.5493C167.803 19.6018 164.266 19.6018 162.085 21.5493C159.904 23.4969 159.904 26.6545 162.085 28.602L174.921 40.0625C177.103 42.0103 180.639 42.0103 182.82 40.0625C185.001 38.1151 185.001 34.9574 182.82 33.01L169.984 21.5493Z" fill="#D9D9D9"/>
<path d="M169.982 21.5493C167.801 19.6018 164.264 19.6018 162.083 21.5493C159.902 23.4969 159.902 26.6545 162.083 28.602L174.919 40.0625C177.101 42.0103 180.637 42.0103 182.818 40.0625C184.999 38.1151 184.999 34.9574 182.818 33.01L169.982 21.5493Z" fill="url(#paint0_linear_15_5437)"/>
<path d="M175.168 4.77304C172.987 2.82549 169.45 2.82549 167.269 4.77304C165.087 6.72059 165.087 9.87818 167.269 11.8257L180.105 23.2864C182.286 25.2339 185.822 25.2339 188.004 23.2864C190.185 21.3388 190.185 18.1812 188.004 16.2337L175.168 4.77304Z" fill="url(#paint1_linear_15_5437)"/>
<defs>
<linearGradient id="paint0_linear_15_5437" x1="162.083" y1="21.5493" x2="180.478" y2="42.1517" gradientUnits="userSpaceOnUse">
<stop stop-color="#00C0FF"/>
<stop offset="1" stop-color="#0186F0"/>
</linearGradient>
<linearGradient id="paint1_linear_15_5437" x1="167.269" y1="4.77304" x2="185.664" y2="25.3755" gradientUnits="userSpaceOnUse">
<stop stop-color="#00C0FF"/>
<stop offset="1" stop-color="#0186F0"/>
</linearGradient>
</defs>
</svg>
