<svg width="24" height="24" viewBox="0 0 24 24" fill="none" xmlns="http://www.w3.org/2000/svg">
<g clip-path="url(#clip0_52_2019)">
<path d="M18.6525 11.2205C20.283 11.2205 21.5104 10.559 22.4155 9.40743L21.2059 8.50869C20.9071 8.89216 20.5209 9.20282 20.0779 9.41617C19.6348 9.62953 19.1468 9.73976 18.6525 9.73817C16.883 9.73817 15.6008 8.33433 15.6008 6.61174C15.6008 4.88915 16.8621 3.40624 18.703 3.40624C19.5213 3.40624 20.0996 3.59437 20.6042 3.89875V5.41342H22.1263V3.20492L21.8347 2.98143C20.9979 2.34032 19.72 2 18.6519 2C16.0407 2 13.9169 4.06831 13.9169 6.61115C13.9169 9.1516 16.0401 11.2205 18.6525 11.2205ZM21.8107 20.3158L21.7565 18.1929V13.0126H18.5818V14.4955H20.1532V18.0102C20.1532 19.5243 18.9657 20.5962 17.7678 20.5962C16.5699 20.5962 15.9448 19.7873 15.9448 18.2738V13.012H12.9792V14.4949H14.3414V18.5309C14.3414 20.5848 15.5239 22 17.6331 22C18.8451 22 19.768 21.3451 20.3187 20.3355H20.3433L20.5605 21.7472H23V20.3175H21.8125V20.3146L21.8107 20.3158ZM13.5662 2.2175H10.9205L8.61943 8.72438H8.58375L6.29496 2.2175H3.47582V3.70101H5.06136L7.79005 11.1174H9.23962V11.1156L12.0852 3.70162H13.5649V2.2181L13.5662 2.2175ZM1 21.7663H2.56769V20.2403H1.00062V21.7663H1ZM7.0542 14.7322H7.03697L6.93853 13.0126H4.14031V14.3643H5.62925V20.3164H4.14031V21.7466H11.0559V20.3445H7.20555V16.7526C7.37967 15.4524 8.38071 14.3421 9.7466 14.3421H9.77121L9.74352 15.6711H11.2657V12.988H10.0622C8.68403 12.9844 7.66147 13.7106 7.05358 14.7328L7.0542 14.7322Z" fill="white"/>
</g>
<defs>
<clipPath id="clip0_52_2019">
<rect width="24" height="24" fill="white"/>
</clipPath>
</defs>
</svg>
