<svg width="24" height="24" viewBox="0 0 24 24" fill="none" xmlns="http://www.w3.org/2000/svg">
<path d="M18.8808 3.39126C18.8808 3.39126 20.6383 2.6987 20.4913 4.38052C20.4429 5.07309 20.0036 7.4973 19.6616 10.119L18.4899 17.8858C18.4899 17.8858 18.3922 19.0237 17.5132 19.2216C16.6347 19.4191 15.3164 18.529 15.0721 18.3311C14.8767 18.1825 11.4105 15.9562 10.19 14.8682C9.848 14.5711 9.45714 13.9777 10.2389 13.2852L15.3653 8.33799C15.9511 7.7437 16.537 6.35857 14.0959 8.04084L7.26035 12.7403C7.26035 12.7403 6.47908 13.2353 5.01471 12.7901L1.84078 11.8004C1.84078 11.8004 0.669101 11.0584 2.67091 10.3165C7.5535 7.99147 13.5589 5.61708 18.8803 3.39081" fill="white"/>
</svg>
