<svg width="24" height="24" viewBox="0 0 24 24" fill="none" xmlns="http://www.w3.org/2000/svg">
<path d="M22.9824 11.7123C22.9824 11.6023 22.893 11.5113 22.783 11.5061C18.8363 11.3566 16.4343 10.8531 14.7539 9.17261C13.07 7.48862 12.5683 5.08465 12.4188 1.12902C12.4154 1.01904 12.3243 0.929688 12.2126 0.929688H11.7522C11.6422 0.929688 11.5511 1.01904 11.546 1.12902C11.3965 5.08293 10.8948 7.48862 9.21092 9.17261C7.5288 10.8549 5.12845 11.3566 1.18173 11.5061C1.07177 11.5096 0.982422 11.6006 0.982422 11.7123V12.1728C0.982422 12.2828 1.07177 12.3739 1.18173 12.379C5.12845 12.5285 7.53052 13.032 9.21092 14.7126C10.8913 16.3931 11.393 18.7903 11.5443 22.7303C11.5477 22.8403 11.6388 22.9297 11.7504 22.9297H12.2126C12.3226 22.9297 12.4137 22.8403 12.4188 22.7303C12.57 18.7903 13.0717 16.3931 14.7521 14.7126C16.4343 13.0303 18.8346 12.5285 22.7813 12.379C22.8913 12.3756 22.9807 12.2845 22.9807 12.1728V11.7123H22.9824Z" fill="white"/>
</svg>
